<svg width="480" height="247" viewBox="0 0 480 247" fill="none" xmlns="http://www.w3.org/2000/svg">
<g filter="url(#filter0_dd_94_704)">
<mask id="mask0_94_704" style="mask-type:alpha" maskUnits="userSpaceOnUse" x="10" y="18" width="481" height="348">
<path d="M226.083 259.557L287.055 245.036L272.534 184.064L211.562 198.585L226.083 259.557Z" fill="#F9E050"/>
<path d="M100.386 130.181L161.359 115.659L150.739 71.0677L89.7664 85.5889L100.386 130.181Z" fill="#F4F464"/>
<path d="M155.974 164.382L216.947 149.861L202.425 88.8889L141.453 103.41L155.974 164.382ZM21.3195 196.452L66.2145 185.76L55.5223 140.865L10.6273 151.557L21.3195 196.452ZM121.757 219.909L166.652 209.217L155.96 164.322L111.065 175.014L121.757 219.909Z" fill="#F4F464"/>
<path d="M236.747 304.332L297.719 289.81L283.198 228.838L222.226 243.359L236.747 304.332Z" fill="#F9B038"/>
<path d="M194.007 124.874L254.979 110.353L240.53 49.6839L179.558 64.2051L194.007 124.874Z" fill="#F6842D"/>
<path d="M249.32 159.143L310.292 144.622L295.771 83.6497L234.799 98.1709L249.32 159.143Z" fill="#F4AC2B"/>
<path d="M259.99 203.946L320.962 189.425L306.441 128.452L245.469 142.974L259.99 203.946Z" fill="#F6842D"/>
<path d="M270.704 248.93L331.677 234.409L317.155 173.437L256.183 187.958L270.704 248.93Z" fill="#F4AC2B"/>
<path d="M281.367 293.705L342.34 279.184L327.818 218.211L266.846 232.732L281.367 293.705Z" fill="#F6842D"/>
<path d="M224.482 53.5069L235.102 98.0986L279.694 87.4786L322.448 266.998L277.553 277.69L288.245 322.585L408.582 293.926C426.661 289.62 441.823 283.829 453.998 276.538C466.188 269.308 475.268 259.516 481.305 247.18C487.342 234.843 490.389 219.372 490.325 200.795C490.274 182.28 486.997 159.5 480.538 132.381C474.022 105.019 466.822 83.2693 458.924 67.1995C450.923 50.8336 441.656 38.8403 431.129 31.25C420.592 23.2922 407.79 18.9068 394.586 18.7326C380.827 18.1629 364.772 20.0634 346.48 24.4198L269.036 42.8638L224.482 53.5069ZM324.643 68.5353L353.673 61.6215C363.683 59.2374 372.634 58.3239 380.402 58.9099C388.45 59.2365 396.044 62.7273 401.532 68.623C407.865 74.4874 413.535 83.4907 418.611 95.649C423.959 107.742 429.107 124.243 434.092 145.173C439.062 166.043 441.873 183.229 442.638 196.67C443.618 209.803 442.644 220.518 439.722 228.842C437.022 236.53 431.805 243.082 424.917 247.434C418.193 251.504 409.974 254.68 400.176 257.013L371.176 263.92L324.643 68.5353Z" fill="#F14D34"/>
<path d="M200.87 153.69L245.765 142.998L235.073 98.1027L190.177 108.795L200.87 153.69Z" fill="#F9E050"/>
<path d="M145.282 119.489L190.177 108.797L179.557 64.2053L134.662 74.8975L145.282 119.489Z" fill="#F9E050"/>
</mask>
<g mask="url(#mask0_94_704)">
<g filter="url(#filter1_d_94_704)">
<path d="M226.083 259.557L287.055 245.036L272.534 184.064L211.562 198.585L226.083 259.557Z" fill="#F9E050"/>
<path d="M100.386 130.181L161.359 115.659L150.739 71.0677L89.7664 85.5889L100.386 130.181Z" fill="#F4F464"/>
<path d="M155.974 164.382L216.947 149.861L202.425 88.8889L141.453 103.41L155.974 164.382ZM21.3195 196.452L66.2145 185.76L55.5223 140.865L10.6273 151.557L21.3195 196.452ZM121.757 219.909L166.652 209.217L155.96 164.322L111.065 175.014L121.757 219.909Z" fill="#F4F464"/>
<path d="M236.747 304.332L297.719 289.81L283.198 228.838L222.226 243.359L236.747 304.332Z" fill="#F9B038"/>
<path d="M194.007 124.874L254.979 110.353L240.53 49.6839L179.558 64.2051L194.007 124.874Z" fill="#F6842D"/>
<path d="M249.32 159.143L310.292 144.622L295.771 83.6497L234.799 98.1709L249.32 159.143Z" fill="#F4AC2B"/>
<path d="M259.99 203.946L320.962 189.425L306.441 128.452L245.469 142.974L259.99 203.946Z" fill="#F6842D"/>
<path d="M270.704 248.93L331.677 234.409L317.155 173.437L256.183 187.958L270.704 248.93Z" fill="#F4AC2B"/>
<path d="M281.367 293.705L342.34 279.184L327.818 218.211L266.846 232.732L281.367 293.705Z" fill="#F6842D"/>
<path d="M224.482 53.5069L235.102 98.0986L279.694 87.4786L322.448 266.998L277.553 277.69L288.245 322.585L408.582 293.926C426.661 289.62 441.823 283.829 453.998 276.538C466.188 269.308 475.268 259.516 481.305 247.18C487.342 234.843 490.389 219.372 490.325 200.795C490.274 182.28 486.997 159.5 480.538 132.381C474.022 105.019 466.822 83.2693 458.924 67.1995C450.923 50.8336 441.656 38.8403 431.129 31.25C420.592 23.2922 407.79 18.9068 394.586 18.7326C380.827 18.1629 364.772 20.0634 346.48 24.4198L269.036 42.8638L224.482 53.5069ZM324.643 68.5353L353.673 61.6215C363.683 59.2374 372.634 58.3239 380.402 58.9099C388.45 59.2365 396.044 62.7273 401.532 68.623C407.865 74.4874 413.535 83.4907 418.611 95.649C423.959 107.742 429.107 124.243 434.092 145.173C439.062 166.043 441.873 183.229 442.638 196.67C443.618 209.803 442.644 220.518 439.722 228.842C437.022 236.53 431.805 243.082 424.917 247.434C418.193 251.504 409.974 254.68 400.176 257.013L371.176 263.92L324.643 68.5353Z" fill="#F14D34"/>
<path d="M200.87 153.69L245.765 142.998L235.073 98.1027L190.177 108.795L200.87 153.69Z" fill="#F9E050"/>
<path d="M145.282 119.489L190.177 108.797L179.557 64.2053L134.662 74.8975L145.282 119.489Z" fill="#F9E050"/>
</g>
<rect y="106.937" width="129.24" height="77.5442" transform="rotate(-13.396 0 106.937)" fill="url(#paint0_linear_94_704)"/>
</g>
</g>
<defs>
<filter id="filter0_dd_94_704" x="-8.99064" y="0" width="531.066" height="408.189" filterUnits="userSpaceOnUse" color-interpolation-filters="sRGB">
<feFlood flood-opacity="0" result="BackgroundImageFix"/>
<feColorMatrix in="SourceAlpha" type="matrix" values="0 0 0 0 0 0 0 0 0 0 0 0 0 0 0 0 0 0 127 0" result="hardAlpha"/>
<feOffset dy="23.2258"/>
<feGaussianBlur stdDeviation="4.49532"/>
<feColorMatrix type="matrix" values="0 0 0 0 0 0 0 0 0 0.0495833 0 0 0 0 0.145833 0 0 0 0.25 0"/>
<feBlend mode="normal" in2="BackgroundImageFix" result="effect1_dropShadow_94_704"/>
<feColorMatrix in="SourceAlpha" type="matrix" values="0 0 0 0 0 0 0 0 0 0 0 0 0 0 0 0 0 0 127 0" result="hardAlpha"/>
<feOffset dy="2.62227"/>
<feColorMatrix type="matrix" values="0 0 0 0 0.2375 0 0 0 0 0.136562 0 0 0 0 0.136562 0 0 0 1 0"/>
<feBlend mode="normal" in2="effect1_dropShadow_94_704" result="effect2_dropShadow_94_704"/>
<feBlend mode="normal" in="SourceGraphic" in2="effect2_dropShadow_94_704" result="shape"/>
</filter>
<filter id="filter1_d_94_704" x="1.63668" y="18.6338" width="497.679" height="378.863" filterUnits="userSpaceOnUse" color-interpolation-filters="sRGB">
<feFlood flood-opacity="0" result="BackgroundImageFix"/>
<feColorMatrix in="SourceAlpha" type="matrix" values="0 0 0 0 0 0 0 0 0 0 0 0 0 0 0 0 0 0 127 0" result="hardAlpha"/>
<feOffset dy="23.2258"/>
<feGaussianBlur stdDeviation="4.49532"/>
<feColorMatrix type="matrix" values="0 0 0 0 0 0 0 0 0 0.0495833 0 0 0 0 0.145833 0 0 0 0.25 0"/>
<feBlend mode="normal" in2="BackgroundImageFix" result="effect1_dropShadow_94_704"/>
<feBlend mode="normal" in="SourceGraphic" in2="effect1_dropShadow_94_704" result="shape"/>
</filter>
<linearGradient id="paint0_linear_94_704" x1="54.8803" y1="69.6628" x2="84.8491" y2="162.753" gradientUnits="userSpaceOnUse">
<stop stop-color="white"/>
<stop offset="1" stop-color="white" stop-opacity="0"/>
</linearGradient>
</defs>
</svg>
