<svg width="887" height="943" viewBox="0 0 767 743" fill="none" xmlns="http://www.w3.org/2000/svg">
<path fill-rule="evenodd" clip-rule="evenodd" d="M302.357 -266.244C331.888 -260.971 361.85 -255.621 393.822 -245.42C394.411 -245.227 395.045 -245.021 395.722 -244.801C441.09 -230.04 679.245 -152.555 750.493 129.077C822.804 414.91 644.649 660.798 384.211 726.684C123.774 792.571 -162.587 646.99 -232.982 368.729C-303.378 90.467 -118.657 -93.9878 -83.8394 -124.579C-73.7465 -133.929 -64.2182 -142.286 -54.9335 -150.43C-26.5332 -175.34 -0.412459 -198.251 32.6111 -241.43C53.0116 -269.534 68.2015 -305.471 56.8951 -381.817C107.568 -345.141 167.698 -302.994 206.932 -288.817C239.54 -277.46 270.701 -271.896 302.357 -266.244ZM22.4699 483.009C2.3549 398.903 61.2759 300.215 160.401 273.656C233.978 254.366 305.277 281.735 364.528 304.48C406.864 320.732 443.049 334.622 469.518 327.442C496.599 320.007 529.598 282.812 562.175 246.094L562.175 246.093C594.246 209.945 625.907 174.258 651.108 167.883C705.126 154.217 734.428 206.482 742.887 239.917C751.345 273.352 755.819 336.474 739.753 380.689C723.686 424.905 710.368 443.226 679.895 448.615C661.452 451.694 628.208 431.546 592.852 410.118C552.068 385.401 508.475 358.98 481.553 364.548C453.527 370.615 417.906 406.478 377.656 447C326.636 498.366 268.178 557.219 208.328 572.36C143.507 588.759 121.618 583.92 96.4108 575.41C58.2693 560.956 33.3904 530.515 22.424 482.827L22.4699 483.009ZM526.48 443.86C511.422 438.453 492.756 442.016 475.458 446.392L475.519 446.376C473.507 446.885 471.594 447.354 469.757 447.803C455.798 451.22 446.265 453.554 431.759 464.342C415.657 476.319 401.038 497.844 391.603 511.735L391.061 512.533C381.65 526.386 381.839 535.812 390.448 542.528C399.016 549.212 404.139 542.276 418.557 522.753L418.762 522.475C420.033 520.754 421.259 519.062 422.462 517.4C435.062 500.004 445.251 485.935 479.766 477.203C516.751 467.847 527.043 479.239 537.959 491.323C538.204 491.593 538.448 491.864 538.693 492.135L538.804 492.258C549.907 504.522 551.546 506.333 557.963 500.149C559.902 498.93 561.549 497.301 562.789 495.377C564.028 493.454 564.83 491.283 565.138 489.017C565.445 486.751 565.251 484.446 564.568 482.264C563.886 480.082 562.731 478.077 561.187 476.39L561.101 476.271C554.047 466.557 541.477 449.244 526.48 443.86ZM458.285 614.883C389.093 632.387 353.128 626.534 327.154 614.738L327.305 614.571C326.765 614.383 326.325 614.216 325.948 614.073C323.709 613.225 323.709 613.225 318.15 614.631C312.12 616.622 307.029 620.754 303.845 626.242C302.657 628.086 301.862 630.153 301.507 632.316C301.153 634.478 301.247 636.691 301.784 638.815C302.322 640.939 303.291 642.929 304.631 644.663C305.971 646.397 307.654 647.838 309.576 648.895C368.025 680.059 446.1 656.828 503.123 636.666C543.061 621.421 578.248 595.886 605.098 562.661C607.038 559.808 608.055 556.431 608.015 552.984C607.974 549.538 606.877 546.188 604.871 543.385C602.676 539.3 596.681 533.985 588.87 543.952C571.173 565.637 527.476 597.379 458.285 614.883Z" fill="url(#paint0_linear_94_789)" fill-opacity="0.548"/>
<defs>
<linearGradient id="paint0_linear_94_789" x1="1884.19" y1="-1541.77" x2="-345.567" y2="-568.114" gradientUnits="userSpaceOnUse">
<stop/>
<stop offset="1" stop-color="white" stop-opacity="0"/>
</linearGradient>
</defs>
</svg>
