<svg width="328" height="271" viewBox="0 0 328 271" fill="none" xmlns="http://www.w3.org/2000/svg">
<g filter="url(#filter0_dd_94_668)">
<mask id="mask0_94_668" style="mask-type:alpha" maskUnits="userSpaceOnUse" x="17" y="1" width="293" height="209">
<path d="M135.223 152.301L174.868 151.901L174.397 105.156L134.752 105.556L135.223 152.301Z" fill="#F9E050"/>
<path d="M75.6745 37.3046L115.32 36.9048L114.975 2.71784L75.3297 3.11768L75.6745 37.3046Z" fill="#F4F464"/>
<path d="M105.213 71.4298L144.858 71.03L144.387 24.2845L104.742 24.6844L105.213 71.4298ZM17.6587 72.3128L46.8501 72.0184L46.503 37.5989L17.3116 37.8933L17.6587 72.3128ZM76.3684 106.097L105.56 105.803L105.213 71.3833L76.0213 71.6777L76.3684 106.097Z" fill="#F4F464"/>
<path d="M135.57 186.628L175.215 186.228L174.743 139.483L135.098 139.883L135.57 186.628Z" fill="#F9B038"/>
<path d="M125.358 208.873L175.418 208.368L175.07 173.948L125.011 174.453L125.358 208.873Z" fill="#F6842D"/>
<path d="M48.2385 209.651L77.4299 209.357L77.0828 174.937L47.8914 175.231L48.2385 209.651Z" fill="#F9E050"/>
<path d="M134.182 49.0417L173.827 48.6418L173.358 2.12897L133.713 2.52881L134.182 49.0417Z" fill="#F6842D"/>
<path d="M77.0622 174.914L106.254 174.619L105.906 140.2L76.7151 140.494L77.0622 174.914Z" fill="#F4F464"/>
<path d="M163.542 83.1692L203.188 82.7694L202.716 36.024L163.071 36.4238L163.542 83.1692Z" fill="#F4AC2B"/>
<path d="M163.889 117.518L203.534 117.119L203.063 70.3731L163.417 70.7729L163.889 117.518Z" fill="#F6842D"/>
<path d="M164.237 152.008L203.882 151.608L203.41 104.863L163.765 105.263L164.237 152.008Z" fill="#F4AC2B"/>
<path d="M164.583 186.335L204.228 185.935L203.757 139.19L164.111 139.59L164.583 186.335Z" fill="#F6842D"/>
<path d="M162.923 2.23514L163.268 36.4221L192.262 36.1297L193.65 173.761L164.459 174.056L164.806 208.475L243.051 207.686C254.806 207.567 264.968 205.883 273.496 202.611C282.024 199.385 288.99 193.779 294.433 185.816C299.876 177.853 303.91 167.114 306.457 153.598C309.004 140.129 310.153 123.022 309.943 102.231C309.732 81.2532 308.317 64.242 305.681 51.2437C303.023 38.013 298.974 27.7502 293.535 20.4785C288.141 12.938 280.852 7.61706 272.729 5.29103C264.318 2.5848 254.146 1.29186 242.253 1.41181L191.898 1.91966L162.923 2.23514ZM222.636 29.8458L241.512 29.6555C248.021 29.5898 253.671 30.4167 258.383 32.1368C263.303 33.7149 267.503 37.5176 270.069 42.718C273.16 48.0364 275.405 55.5263 276.844 65.2107C278.461 74.8933 279.34 87.7466 279.502 103.794C279.663 119.794 279.005 132.756 277.606 142.655C276.382 152.366 274.289 159.993 271.327 165.558C268.591 170.698 264.46 174.591 259.603 176.608C254.887 178.447 249.374 179.386 243.003 179.45L224.147 179.64L222.636 29.8458Z" fill="#F14D34"/>
<path d="M134.405 71.1358L163.596 70.8414L163.249 36.4219L134.058 36.7163L134.405 71.1358Z" fill="#F9E050"/>
<path d="M106.601 209.061L135.793 208.767L135.446 174.347L106.254 174.642L106.601 209.061Z" fill="#F9B038"/>
<path d="M104.866 37.0102L134.058 36.7158L133.713 2.52884L104.521 2.82324L104.866 37.0102Z" fill="#F9E050"/>
</mask>
<g mask="url(#mask0_94_668)">
<g filter="url(#filter1_d_94_668)">
<path d="M135.223 152.301L174.868 151.901L174.397 105.156L134.752 105.556L135.223 152.301Z" fill="#F9E050"/>
<path d="M75.6745 37.3046L115.32 36.9048L114.975 2.71784L75.3297 3.11768L75.6745 37.3046Z" fill="#F4F464"/>
<path d="M105.213 71.4298L144.858 71.03L144.387 24.2845L104.742 24.6844L105.213 71.4298ZM17.6587 72.3128L46.8501 72.0184L46.503 37.5989L17.3116 37.8933L17.6587 72.3128ZM76.3684 106.097L105.56 105.803L105.213 71.3833L76.0213 71.6777L76.3684 106.097Z" fill="#F4F464"/>
<path d="M135.57 186.628L175.215 186.228L174.743 139.483L135.098 139.883L135.57 186.628Z" fill="#F9B038"/>
<path d="M125.358 208.873L175.418 208.368L175.07 173.948L125.011 174.453L125.358 208.873Z" fill="#F6842D"/>
<path d="M48.2385 209.651L77.4299 209.357L77.0828 174.937L47.8914 175.231L48.2385 209.651Z" fill="#F9E050"/>
<path d="M134.182 49.0417L173.827 48.6418L173.358 2.12897L133.713 2.52881L134.182 49.0417Z" fill="#F6842D"/>
<path d="M77.0622 174.914L106.254 174.619L105.906 140.2L76.7151 140.494L77.0622 174.914Z" fill="#F4F464"/>
<path d="M163.542 83.1692L203.188 82.7694L202.716 36.024L163.071 36.4238L163.542 83.1692Z" fill="#F4AC2B"/>
<path d="M163.889 117.518L203.534 117.119L203.063 70.3731L163.417 70.7729L163.889 117.518Z" fill="#F6842D"/>
<path d="M164.237 152.008L203.882 151.608L203.41 104.863L163.765 105.263L164.237 152.008Z" fill="#F4AC2B"/>
<path d="M164.583 186.335L204.228 185.935L203.757 139.19L164.111 139.59L164.583 186.335Z" fill="#F6842D"/>
<path d="M162.923 2.23514L163.268 36.4221L192.262 36.1297L193.65 173.761L164.459 174.056L164.806 208.475L243.051 207.686C254.806 207.567 264.968 205.883 273.496 202.611C282.024 199.385 288.99 193.779 294.433 185.816C299.876 177.853 303.91 167.114 306.457 153.598C309.004 140.129 310.153 123.022 309.943 102.231C309.732 81.2532 308.317 64.242 305.681 51.2437C303.023 38.013 298.974 27.7502 293.535 20.4785C288.141 12.938 280.852 7.61706 272.729 5.29103C264.318 2.5848 254.146 1.29186 242.253 1.41181L191.898 1.91966L162.923 2.23514ZM222.636 29.8458L241.512 29.6555C248.021 29.5898 253.671 30.4167 258.383 32.1368C263.303 33.7149 267.503 37.5176 270.069 42.718C273.16 48.0364 275.405 55.5263 276.844 65.2107C278.461 74.8933 279.34 87.7466 279.502 103.794C279.663 119.794 279.005 132.756 277.606 142.655C276.382 152.366 274.289 159.993 271.327 165.558C268.591 170.698 264.46 174.591 259.603 176.608C254.887 178.447 249.374 179.386 243.003 179.45L224.147 179.64L222.636 29.8458Z" fill="#F14D34"/>
<path d="M134.405 71.1358L163.596 70.8414L163.249 36.4219L134.058 36.7163L134.405 71.1358Z" fill="#F9E050"/>
<path d="M106.601 209.061L135.793 208.767L135.446 174.347L106.254 174.642L106.601 209.061Z" fill="#F9B038"/>
<path d="M104.866 37.0102L134.058 36.7158L133.713 2.52884L104.521 2.82324L104.866 37.0102Z" fill="#F9E050"/>
</g>
</g>
</g>
<defs>
<filter id="filter0_dd_94_668" x="-0.103456" y="0.73877" width="328.173" height="270.373" filterUnits="userSpaceOnUse" color-interpolation-filters="sRGB">
<feFlood flood-opacity="0" result="BackgroundImageFix"/>
<feColorMatrix in="SourceAlpha" type="matrix" values="0 0 0 0 0 0 0 0 0 0 0 0 0 0 0 0 0 0 127 0" result="hardAlpha"/>
<feOffset dy="44.0975"/>
<feGaussianBlur stdDeviation="8.535"/>
<feColorMatrix type="matrix" values="0 0 0 0 0 0 0 0 0 0.0495833 0 0 0 0 0.145833 0 0 0 0.25 0"/>
<feBlend mode="normal" in2="BackgroundImageFix" result="effect1_dropShadow_94_668"/>
<feColorMatrix in="SourceAlpha" type="matrix" values="0 0 0 0 0 0 0 0 0 0 0 0 0 0 0 0 0 0 127 0" result="hardAlpha"/>
<feOffset dy="4.97875"/>
<feColorMatrix type="matrix" values="0 0 0 0 0.2375 0 0 0 0 0.136562 0 0 0 0 0.136562 0 0 0 1 0"/>
<feBlend mode="normal" in2="effect1_dropShadow_94_668" result="effect2_dropShadow_94_668"/>
<feBlend mode="normal" in="SourceGraphic" in2="effect2_dropShadow_94_668" result="shape"/>
</filter>
<filter id="filter1_d_94_668" x="0.241514" y="1.4043" width="326.796" height="269.415" filterUnits="userSpaceOnUse" color-interpolation-filters="sRGB">
<feFlood flood-opacity="0" result="BackgroundImageFix"/>
<feColorMatrix in="SourceAlpha" type="matrix" values="0 0 0 0 0 0 0 0 0 0 0 0 0 0 0 0 0 0 127 0" result="hardAlpha"/>
<feOffset dy="44.0975"/>
<feGaussianBlur stdDeviation="8.535"/>
<feColorMatrix type="matrix" values="0 0 0 0 0 0 0 0 0 0.0495833 0 0 0 0 0.145833 0 0 0 0.25 0"/>
<feBlend mode="normal" in2="BackgroundImageFix" result="effect1_dropShadow_94_668"/>
<feBlend mode="normal" in="SourceGraphic" in2="effect1_dropShadow_94_668" result="shape"/>
</filter>
</defs>
</svg>
