<svg width="24" height="18" viewBox="0 0 24 18" fill="none" xmlns="http://www.w3.org/2000/svg">
<path d="M1.50004 0H22.5C22.8095 0 23.1062 0.105357 23.325 0.292893C23.5438 0.48043 23.6667 0.734784 23.6667 1V17C23.6667 17.2652 23.5438 17.5196 23.325 17.7071C23.1062 17.8946 22.8095 18 22.5 18H1.50004C1.19062 18 0.893875 17.8946 0.675083 17.7071C0.45629 17.5196 0.333374 17.2652 0.333374 17V1C0.333374 0.734784 0.45629 0.48043 0.675083 0.292893C0.893875 0.105357 1.19062 0 1.50004 0ZM21.3334 4.238L12.084 11.338L2.66671 4.216V16H21.3334V4.238ZM3.26287 2L12.0712 8.662L20.7524 2H3.26287Z" fill="white"/>
</svg>
